# Blender 3.3.0
# www.blender.org
mtllib clearence.mtl
o Body1
v 0.004737 0.003000 0.012709
v 0.006000 0.003000 0.009925
v 0.006000 -0.000000 0.009925
v 0.004737 -0.000000 0.012709
v 0.005369 0.001500 0.011317
v 0.002760 -0.000000 0.014254
v 0.002760 0.003000 0.014254
v 0.003749 0.001500 0.013481
v -0.002760 0.003000 0.017100
v 0.002760 0.003000 0.017100
v 0.002760 -0.000000 0.017100
v -0.002760 -0.000000 0.017100
v 0.000000 0.001500 0.017100
v -0.002760 -0.000000 0.014254
v -0.002760 0.003000 0.014254
v -0.002760 0.001500 0.015677
v -0.004737 0.003000 0.012709
v -0.004737 -0.000000 0.012709
v -0.006000 -0.000000 0.009925
v -0.006000 0.003000 0.009925
v -0.005369 0.001500 0.011317
v 0.002760 0.001500 0.015677
v -0.006300 0.003000 0.008700
v -0.006300 -0.000000 0.008700
v -0.006300 -0.000000 0.005400
v -0.006300 0.003000 0.005400
v -0.006300 0.001500 0.007050
v 0.004770 0.003000 0.001980
v 0.004770 0.003000 0.001380
v 0.004770 -0.000000 0.001380
v 0.004770 -0.000000 0.001980
v 0.004770 0.001500 0.001680
v 0.004616 -0.000000 0.001380
v 0.004616 0.003000 0.001380
v 0.003797 0.003000 0.000562
v 0.003797 -0.000000 0.000562
v 0.004207 0.001500 0.000971
v -0.000000 0.003000 0.000301
v -0.003797 0.003000 0.000562
v -0.003797 -0.000000 0.000562
v -0.000000 -0.000000 0.000301
v -0.001899 0.001500 0.000431
v 0.001899 0.001500 0.000431
v 0.003930 -0.000000 0.000270
v 0.000000 0.000000 0.000000
v 0.000000 0.003000 0.000000
v 0.003930 0.003000 0.000270
v 0.001965 0.001500 0.000135
v -0.006300 -0.000000 0.001680
v -0.006300 -0.000000 0.005100
v -0.006300 0.003000 0.005100
v -0.006300 0.003000 0.001680
v -0.006300 0.001500 0.003390
v -0.003930 0.003000 0.000270
v -0.004740 0.003000 0.001080
v -0.005070 0.003000 0.001080
v -0.005070 0.003000 0.001680
v -0.006600 0.003000 0.005100
v -0.006600 0.003000 0.009000
v -0.006300 0.003000 0.009000
v -0.006300 0.003000 0.009990
v -0.004980 0.003000 0.012900
v -0.003060 0.003000 0.014400
v -0.003060 0.003000 0.017400
v 0.003060 0.003000 0.017400
v 0.003060 0.003000 0.014400
v 0.004980 0.003000 0.012900
v 0.006300 0.003000 0.009990
v 0.006300 0.003000 0.009000
v 0.006600 0.003000 0.009000
v 0.006600 0.003000 0.005100
v 0.006300 0.003000 0.005100
v 0.006300 0.003000 0.001680
v 0.005070 0.003000 0.001680
v 0.005070 0.003000 0.001080
v 0.004740 0.003000 0.001080
v 0.006000 0.003000 0.001980
v 0.006000 0.003000 0.005400
v 0.006300 0.003000 0.005400
v 0.006300 0.003000 0.008700
v 0.006000 0.003000 0.008700
v -0.006000 0.003000 0.008700
v -0.006000 0.003000 0.005400
v -0.006000 0.003000 0.001980
v -0.004770 0.003000 0.001980
v -0.004770 0.003000 0.001380
v -0.004616 0.003000 0.001380
v 0.004693 0.001500 0.001380
v 0.006000 -0.000000 0.001980
v 0.005385 0.001500 0.001980
v 0.006000 -0.000000 0.005400
v 0.006000 0.001500 0.003690
v 0.006300 -0.000000 0.005400
v 0.006150 0.001500 0.005400
v 0.006300 -0.000000 0.008700
v 0.006300 0.001500 0.007050
v 0.006000 -0.000000 0.008700
v 0.006150 0.001500 0.008700
v 0.006000 0.001500 0.009313
v -0.003749 0.001500 0.013481
v -0.006000 -0.000000 0.008700
v -0.006000 0.001500 0.009313
v -0.006150 0.001500 0.008700
v -0.006000 -0.000000 0.005400
v -0.006150 0.001500 0.005400
v -0.006000 -0.000000 0.001980
v -0.006000 0.001500 0.003690
v -0.004770 -0.000000 0.001980
v -0.005385 0.001500 0.001980
v -0.004770 -0.000000 0.001380
v -0.004770 0.001500 0.001680
v -0.004616 -0.000000 0.001380
v -0.004693 0.001500 0.001380
v -0.004207 0.001500 0.000971
v 0.004740 -0.000000 0.001080
v 0.004335 0.001500 0.000675
v 0.005070 -0.000000 0.001080
v 0.004905 0.001500 0.001080
v 0.005070 -0.000000 0.001680
v 0.005070 0.001500 0.001380
v 0.006300 -0.000000 0.001680
v 0.005685 0.001500 0.001680
v 0.006300 -0.000000 0.005100
v 0.006300 0.001500 0.003390
v 0.006600 -0.000000 0.005100
v 0.006450 0.001500 0.005100
v 0.006600 -0.000000 0.009000
v 0.006600 0.001500 0.007050
v 0.006300 -0.000000 0.009000
v 0.006450 0.001500 0.009000
v 0.006300 -0.000000 0.009990
v 0.006300 0.001500 0.009495
v 0.004980 -0.000000 0.012900
v 0.005640 0.001500 0.011445
v 0.003060 -0.000000 0.014400
v 0.004020 0.001500 0.013650
v 0.003060 -0.000000 0.017400
v 0.003060 0.001500 0.015900
v -0.003060 -0.000000 0.017400
v 0.000000 0.001500 0.017400
v -0.003060 -0.000000 0.014400
v -0.003060 0.001500 0.015900
v -0.004980 -0.000000 0.012900
v -0.004020 0.001500 0.013650
v -0.006300 -0.000000 0.009990
v -0.005640 0.001500 0.011445
v -0.006300 -0.000000 0.009000
v -0.006300 0.001500 0.009495
v -0.006600 -0.000000 0.009000
v -0.006450 0.001500 0.009000
v -0.006600 -0.000000 0.005100
v -0.006600 0.001500 0.007050
v -0.006450 0.001500 0.005100
v -0.005070 -0.000000 0.001680
v -0.005685 0.001500 0.001680
v -0.005070 -0.000000 0.001080
v -0.005070 0.001500 0.001380
v -0.004740 -0.000000 0.001080
v -0.004905 0.001500 0.001080
v -0.003930 -0.000000 0.000270
v -0.004335 0.001500 0.000675
v -0.001965 0.001500 0.000135
vn -0.9107 -0.0000 -0.4131
vn -0.6156 -0.0000 -0.7880
vn -0.0000 -0.0000 -1.0000
vn 1.0000 -0.0000 -0.0000
vn 0.9107 -0.0000 -0.4131
vn -1.0000 -0.0000 -0.0000
vn -0.7071 -0.0000 0.7071
vn 0.0685 -0.0000 0.9976
vn -0.0685 -0.0000 0.9976
vn 0.0685 -0.0000 -0.9976
vn -0.0000 1.0000 -0.0000
vn -0.0000 -0.0000 1.0000
vn 0.6156 -0.0000 -0.7880
vn 0.7071 -0.0000 0.7071
vn 0.7071 -0.0000 -0.7071
vn 0.9107 -0.0000 0.4131
vn 0.6156 -0.0000 0.7880
vn -0.6156 -0.0000 0.7880
vn -0.9107 -0.0000 0.4131
vn -0.7071 -0.0000 -0.7071
vn -0.0685 -0.0000 -0.9976
vn -0.0000 -1.0000 -0.0000
vt 0.497594 0.455740
vt 0.577254 0.455740
vt 0.355518 0.395284
vt 0.603971 0.455740
vt 0.452395 0.351341
vt 0.497286 0.455740
vt 0.603971 0.560140
vt 0.497286 0.560140
vt 0.703828 0.602774
vt 0.497594 0.560140
vt 0.577254 0.560140
vt 0.659884 0.699651
vt 0.550782 0.507940
vt 0.489937 0.560140
vt 0.604521 0.560140
vt 0.591077 0.753407
vt 0.489937 0.455740
vt 0.604521 0.455740
vt 0.301762 0.464092
vt 0.533595 0.507940
vt 0.505469 0.455740
vt 0.588988 0.455740
vt 0.202710 0.656187
vt 0.697565 0.455740
vt 0.505469 0.455740
vt 0.202710 0.464092
vt 0.697565 0.560140
vt 0.505469 0.560140
vt 0.591077 0.852458
vt 0.505469 0.560140
vt 0.588988 0.560140
vt 0.398981 0.852458
vt 0.601517 0.507940
vt 0.489937 0.560140
vt 0.584910 0.560140
vt 0.398981 0.753407
vt 0.489937 0.455740
vt 0.301762 0.656187
vt 0.584910 0.455740
vt 0.539463 0.507940
vt 0.603664 0.455740
vt 0.355518 0.724995
vt 0.497594 0.455740
vt 0.603664 0.560140
vt 0.497594 0.560140
vt 0.330174 0.699651
vt 0.497286 0.560140
vt 0.781958 0.560140
vt 0.286230 0.602774
vt 0.497286 0.455740
vt 0.452395 0.768938
vt 0.781958 0.455740
vt 0.550475 0.507940
vt 0.554995 0.507940
vt 0.620309 0.455740
vt 0.495029 0.779378
vt 0.505469 0.455740
vt 0.620309 0.560140
vt 0.505469 0.560140
vt 0.275790 0.560140
vt 0.505469 0.560140
vt 0.495029 0.560140
vt 0.275790 0.445300
vt 0.505469 0.455740
vt 0.609868 0.779378
vt 0.495029 0.455740
vt 0.562889 0.507940
vt 0.484589 0.455740
vt 0.728884 0.394144
vt 0.152599 0.455740
vt 0.505469 0.455740
vt 0.749764 0.394144
vt 0.164083 0.455740
vt 0.505469 0.560140
vt 0.164083 0.560140
vt 0.661024 0.305405
vt 0.484589 0.560140
vt 0.152599 0.560140
vt 0.661024 0.326284
vt 0.495029 0.507940
vt 0.490705 0.560140
vt 0.169450 0.560140
vt 0.655656 0.305405
vt 0.490705 0.455740
vt 0.749764 0.399513
vt 0.169450 0.455740
vt 0.530982 0.455740
vt 0.498940 0.455740
vt 0.778244 0.427994
vt 0.530982 0.560140
vt 0.498940 0.560140
vt 0.627175 0.276925
vt 0.510844 0.507940
vt 0.495746 0.455740
vt 0.631398 0.455740
vt 0.787323 0.560140
vt 0.628204 0.455740
vt 0.778244 0.692286
vt 0.498940 0.455740
vt 0.628204 0.560140
vt 0.498940 0.560140
vt 0.362883 0.276925
vt 0.495746 0.560140
vt 0.631398 0.560140
vt 0.495029 0.267846
vt 0.561975 0.507940
vt 0.565169 0.507940
vt 0.495029 0.560140
vt 0.455166 0.560140
vt 0.631792 0.266778
vt 0.357944 0.560140
vt 0.495029 0.560140
vt 0.495029 0.257381
vt 0.357944 0.455740
vt 0.797788 0.560140
vt 0.495029 0.455740
vt 0.495029 0.455740
vt 0.788391 0.423376
vt 0.455166 0.455740
vt 0.426486 0.507940
vt 0.495029 0.560140
vt 0.452225 0.560140
vt 0.275790 0.315845
vt 0.376014 0.560140
vt 0.495029 0.560140
vt 0.275790 0.434860
vt 0.376014 0.455740
vt 0.620309 0.779378
vt 0.495029 0.455740
vt 0.495029 0.455740
vt 0.739324 0.779378
vt 0.452225 0.455740
vt 0.435522 0.507940
vt 0.788391 0.696903
vt 0.495029 0.455740
vt 0.357944 0.455740
vt 0.760204 0.725090
vt 0.495029 0.455740
vt 0.455166 0.455740
vt 0.760204 0.736575
vt 0.495029 0.455740
vt 0.483545 0.455740
vt 0.739324 0.736575
vt 0.495029 0.455740
vt 0.474149 0.455740
vt 0.620309 0.789819
vt 0.495029 0.455740
vt 0.484589 0.455740
vt 0.484589 0.789819
vt 0.495029 0.455740
vt 0.359310 0.455740
vt 0.484589 0.779378
vt 0.495029 0.455740
vt 0.484589 0.455740
vt 0.450137 0.779378
vt 0.495029 0.455740
vt 0.460577 0.455740
vt 0.348870 0.733442
vt 0.495029 0.455740
vt 0.383830 0.455740
vt 0.296671 0.666627
vt 0.495029 0.455740
vt 0.410240 0.455740
vt 0.192270 0.666627
vt 0.495029 0.455740
vt 0.390630 0.455740
vt 0.192270 0.453652
vt 0.495029 0.455740
vt 0.282054 0.455740
vt 0.296671 0.453652
vt 0.495029 0.455740
vt 0.390630 0.455740
vt 0.348870 0.386837
vt 0.495029 0.455740
vt 0.410240 0.455740
vt 0.450137 0.340901
vt 0.495029 0.455740
vt 0.383830 0.455740
vt 0.484589 0.340901
vt 0.495029 0.455740
vt 0.460577 0.455740
vt 0.484589 0.330460
vt 0.495029 0.455740
vt 0.484589 0.455740
vt 0.620309 0.330460
vt 0.495029 0.455740
vt 0.359310 0.455740
vt 0.620309 0.340901
vt 0.495029 0.455740
vt 0.484589 0.455740
vt 0.739324 0.340901
vt 0.495029 0.455740
vt 0.376014 0.455740
vt 0.739324 0.383704
vt 0.495029 0.455740
vt 0.452225 0.455740
vt 0.760204 0.383704
vt 0.495029 0.455740
vt 0.474149 0.455740
vt 0.760204 0.395189
vt 0.495029 0.455740
vt 0.483545 0.455740
vt 0.728884 0.351341
vt 0.109795 0.455740
vt 0.773776 0.455740
vt 0.609868 0.351341
vt 0.654760 0.455740
vt 0.066991 0.455740
vt 0.609868 0.340901
vt 0.056551 0.455740
vt 0.620309 0.455740
vt 0.495029 0.340901
vt 0.505469 0.455740
vt 0.943947 0.455740
vt 0.495029 0.351341
vt 0.933507 0.455740
vt 0.539921 0.455740
vt 0.495029 0.768938
vt 0.739324 0.455740
vt 0.515909 0.455740
vt 0.609868 0.768938
vt 0.484589 0.455740
vt 0.624485 0.455740
vt 0.728884 0.768938
vt 0.505469 0.455740
vt 0.527393 0.455740
vt 0.728884 0.726135
vt 0.484589 0.455740
vt 0.526349 0.455740
vt 0.749764 0.726135
vt 0.505469 0.455740
vt 0.496073 0.455740
vt 0.749764 0.720767
vt 0.490705 0.455740
vt 0.539217 0.455740
vt 0.166767 0.507940
vt 0.109795 0.560140
vt 0.773776 0.560140
vt 0.703828 0.326284
vt 0.131197 0.507940
vt 0.654760 0.560140
vt 0.066991 0.560140
vt 0.703828 0.445300
vt 0.714267 0.507940
vt 0.056551 0.560140
vt 0.620309 0.560140
vt 0.714267 0.445300
vt 0.061773 0.507940
vt 0.505469 0.560140
vt 0.943947 0.560140
vt 0.714267 0.560140
vt 0.562889 0.507940
vt 0.933507 0.560140
vt 0.539921 0.560140
vt 0.703828 0.560140
vt 0.938726 0.507940
vt 0.518604 0.507940
vt 0.541252 0.507940
vt 0.739324 0.560140
vt 0.515909 0.560140
vt 0.286230 0.560140
vt 0.760641 0.507940
vt 0.510689 0.507940
vt 0.484589 0.560140
vt 0.624485 0.560140
vt 0.286230 0.445300
vt 0.489809 0.507940
vt 0.505469 0.560140
vt 0.527393 0.560140
vt 0.286230 0.326284
vt 0.564977 0.507940
vt 0.484589 0.560140
vt 0.526349 0.560140
vt 0.329034 0.326284
vt 0.505991 0.507940
vt 0.505469 0.560140
vt 0.496073 0.560140
vt 0.329034 0.305405
vt 0.515909 0.507940
vt 0.490705 0.560140
vt 0.539217 0.560140
vt 0.334403 0.305405
vt 0.493389 0.507940
vt 0.519078 0.507940
vt 0.495029 0.560140
vt 0.483545 0.560140
vt 0.659981 0.294965
vt 0.475097 0.507940
vt 0.495029 0.560140
vt 0.474149 0.560140
vt 0.671465 0.294965
vt 0.489287 0.507940
vt 0.495029 0.560140
vt 0.452225 0.560140
vt 0.671465 0.315845
vt 0.484589 0.507940
vt 0.495029 0.560140
vt 0.376014 0.560140
vt 0.714267 0.315845
vt 0.473627 0.507940
vt 0.495029 0.560140
vt 0.484589 0.560140
vt 0.714267 0.434860
vt 0.435522 0.507940
vt 0.495029 0.560140
vt 0.359310 0.560140
vt 0.724709 0.434860
vt 0.489809 0.507940
vt 0.495029 0.560140
vt 0.484589 0.560140
vt 0.724709 0.570579
vt 0.427169 0.507940
vt 0.495029 0.560140
vt 0.460577 0.560140
vt 0.714267 0.570579
vt 0.489809 0.507940
vt 0.495029 0.560140
vt 0.383830 0.560140
vt 0.714267 0.605031
vt 0.477803 0.507940
vt 0.495029 0.560140
vt 0.410240 0.560140
vt 0.668332 0.706299
vt 0.439430 0.507940
vt 0.495029 0.560140
vt 0.390630 0.560140
vt 0.601517 0.758498
vt 0.452635 0.507940
vt 0.495029 0.560140
vt 0.282054 0.560140
vt 0.601517 0.862898
vt 0.442830 0.507940
vt 0.495029 0.560140
vt 0.390630 0.560140
vt 0.388542 0.862898
vt 0.388542 0.507940
vt 0.495029 0.560140
vt 0.410240 0.560140
vt 0.388542 0.758498
vt 0.442830 0.507940
vt 0.495029 0.560140
vt 0.383830 0.560140
vt 0.321726 0.706299
vt 0.452635 0.507940
vt 0.495029 0.560140
vt 0.460577 0.560140
vt 0.275790 0.605031
vt 0.439430 0.507940
vt 0.495029 0.560140
vt 0.484589 0.560140
vt 0.275790 0.570579
vt 0.477803 0.507940
vt 0.495029 0.560140
vt 0.359310 0.560140
vt 0.265350 0.570579
vt 0.489809 0.507940
vt 0.495029 0.560140
vt 0.484589 0.560140
vt 0.265350 0.434860
vt 0.427169 0.507940
vt 0.489809 0.507940
vt 0.495029 0.560140
vt 0.474149 0.560140
vt 0.318594 0.315845
vt 0.473627 0.507940
vt 0.495029 0.560140
vt 0.483545 0.560140
vt 0.318594 0.294965
vt 0.484589 0.507940
vt 0.495029 0.560140
vt 0.455166 0.560140
vt 0.330078 0.294965
vt 0.489287 0.507940
vt 0.495029 0.560140
vt 0.357944 0.560140
vt 0.358266 0.266778
vt 0.475097 0.507940
vt 0.426486 0.507940
s 1
usemtl Steel_-_Satin
f 4/10/1 1/1/1 5/13/1
f 5/13/1 1/1/1 2/4/1
f 5/13/1 2/4/1 3/7/1
f 3/7/1 4/10/1 5/13/1
f 7/17/2 1/2/2 8/20/2
f 8/20/2 1/2/2 4/11/2
f 8/20/2 4/11/2 6/14/2
f 6/14/2 7/17/2 8/20/2
f 12/30/3 9/21/3 13/33/3
f 13/33/3 9/21/3 10/24/3
f 13/33/3 10/24/3 11/27/3
f 11/27/3 12/30/3 13/33/3
f 12/31/4 14/34/4 16/40/4
f 16/40/4 14/34/4 15/37/4
f 16/40/4 15/37/4 9/22/4
f 9/22/4 12/31/4 16/40/4
f 20/50/5 17/41/5 21/53/5
f 21/53/5 17/41/5 18/44/5
f 21/53/5 18/44/5 19/47/5
f 19/47/5 20/50/5 21/53/5
f 7/18/6 6/15/6 22/54/6
f 22/54/6 6/15/6 11/28/6
f 22/54/6 11/28/6 10/25/6
f 10/25/6 7/18/6 22/54/6
f 26/64/4 23/55/4 27/67/4
f 27/67/4 23/55/4 24/58/4
f 27/67/4 24/58/4 25/61/4
f 25/61/4 26/64/4 27/67/4
f 31/77/6 28/68/6 32/80/6
f 32/80/6 28/68/6 29/71/6
f 32/80/6 29/71/6 30/74/6
f 30/74/6 31/77/6 32/80/6
f 36/90/7 33/81/7 37/93/7
f 37/93/7 33/81/7 34/84/7
f 37/93/7 34/84/7 35/87/7
f 35/87/7 36/90/7 37/93/7
f 41/103/8 38/94/8 42/106/8
f 42/106/8 38/94/8 39/97/8
f 42/106/8 39/97/8 40/100/8
f 40/100/8 41/103/8 42/106/8
f 41/104/9 36/91/9 43/107/9
f 43/107/9 36/91/9 35/88/9
f 43/107/9 35/88/9 38/95/9
f 38/95/9 41/104/9 43/107/9
f 47/117/10 44/108/10 48/120/10
f 48/120/10 44/108/10 45/111/10
f 48/120/10 45/111/10 46/114/10
f 46/114/10 47/117/10 48/120/10
f 52/130/6 49/121/6 53/133/6
f 53/133/6 49/121/6 50/124/6
f 53/133/6 50/124/6 51/127/6
f 51/127/6 52/130/6 53/133/6
f 54/134/11 39/98/11 46/115/11
f 46/115/11 39/98/11 38/96/11
f 46/115/11 38/96/11 35/89/11
f 54/134/11 55/137/11 39/98/11
f 39/98/11 55/137/11 87/233/11
f 87/233/11 55/137/11 86/230/11
f 86/230/11 55/137/11 56/140/11
f 86/230/11 56/140/11 57/143/11
f 52/131/11 84/224/11 57/143/11
f 57/143/11 84/224/11 85/227/11
f 57/143/11 85/227/11 86/230/11
f 52/131/11 51/128/11 84/224/11
f 84/224/11 51/128/11 83/221/11
f 83/221/11 51/128/11 26/65/11
f 26/65/11 51/128/11 58/146/11
f 26/65/11 58/146/11 59/149/11
f 26/65/11 59/149/11 23/56/11
f 23/56/11 59/149/11 60/152/11
f 23/56/11 60/152/11 82/218/11
f 82/218/11 60/152/11 20/51/11
f 20/51/11 60/152/11 61/155/11
f 20/51/11 61/155/11 62/158/11
f 20/51/11 62/158/11 17/42/11
f 17/42/11 62/158/11 63/161/11
f 17/42/11 63/161/11 15/38/11
f 15/38/11 63/161/11 9/23/11
f 9/23/11 63/161/11 64/164/11
f 9/23/11 64/164/11 65/167/11
f 9/23/11 65/167/11 10/26/11
f 10/26/11 65/167/11 66/170/11
f 10/26/11 66/170/11 7/19/11
f 7/19/11 66/170/11 1/3/11
f 1/3/11 66/170/11 67/173/11
f 1/3/11 67/173/11 2/5/11
f 2/5/11 67/173/11 68/176/11
f 2/5/11 68/176/11 69/179/11
f 70/182/11 80/212/11 69/179/11
f 69/179/11 80/212/11 81/215/11
f 69/179/11 81/215/11 2/5/11
f 70/182/11 71/185/11 80/212/11
f 80/212/11 71/185/11 79/209/11
f 79/209/11 71/185/11 72/188/11
f 79/209/11 72/188/11 78/206/11
f 78/206/11 72/188/11 77/203/11
f 77/203/11 72/188/11 73/191/11
f 77/203/11 73/191/11 74/194/11
f 75/197/11 29/72/11 74/194/11
f 74/194/11 29/72/11 28/69/11
f 74/194/11 28/69/11 77/203/11
f 75/197/11 76/200/11 29/72/11
f 29/72/11 76/200/11 34/85/11
f 34/85/11 76/200/11 35/89/11
f 35/89/11 76/200/11 47/118/11
f 35/89/11 47/118/11 46/115/11
f 33/82/12 30/75/12 88/236/12
f 88/236/12 30/75/12 29/73/12
f 88/236/12 29/73/12 34/86/12
f 34/86/12 33/82/12 88/236/12
f 31/78/12 89/237/12 90/240/12
f 90/240/12 89/237/12 77/204/12
f 90/240/12 77/204/12 28/70/12
f 28/70/12 31/78/12 90/240/12
f 91/241/6 78/207/6 92/244/6
f 92/244/6 78/207/6 77/205/6
f 92/244/6 77/205/6 89/238/6
f 89/238/6 91/241/6 92/244/6
f 91/242/12 93/245/12 94/248/12
f 94/248/12 93/245/12 79/210/12
f 94/248/12 79/210/12 78/208/12
f 78/208/12 91/242/12 94/248/12
f 93/246/6 95/249/6 96/252/6
f 96/252/6 95/249/6 80/213/6
f 96/252/6 80/213/6 79/211/6
f 79/211/6 93/246/6 96/252/6
f 95/250/3 97/253/3 98/256/3
f 98/256/3 97/253/3 81/216/3
f 98/256/3 81/216/3 80/214/3
f 80/214/3 95/250/3 98/256/3
f 97/254/6 3/8/6 99/257/6
f 99/257/6 3/8/6 2/6/6
f 99/257/6 2/6/6 81/217/6
f 81/217/6 97/254/6 99/257/6
f 17/43/13 15/39/13 100/258/13
f 100/258/13 15/39/13 14/35/13
f 100/258/13 14/35/13 18/45/13
f 18/45/13 17/43/13 100/258/13
f 19/48/4 101/259/4 102/262/4
f 102/262/4 101/259/4 82/219/4
f 102/262/4 82/219/4 20/52/4
f 20/52/4 19/48/4 102/262/4
f 101/260/3 24/59/3 103/263/3
f 103/263/3 24/59/3 23/57/3
f 103/263/3 23/57/3 82/220/3
f 82/220/3 101/260/3 103/263/3
f 25/62/12 104/264/12 105/267/12
f 105/267/12 104/264/12 83/222/12
f 105/267/12 83/222/12 26/66/12
f 26/66/12 25/62/12 105/267/12
f 106/268/4 84/225/4 107/271/4
f 107/271/4 84/225/4 83/223/4
f 107/271/4 83/223/4 104/265/4
f 104/265/4 106/268/4 107/271/4
f 108/272/12 85/228/12 109/275/12
f 109/275/12 85/228/12 84/226/12
f 109/275/12 84/226/12 106/269/12
f 106/269/12 108/272/12 109/275/12
f 86/231/4 85/229/4 111/279/4
f 111/279/4 85/229/4 108/273/4
f 111/279/4 108/273/4 110/276/4
f 110/276/4 86/231/4 111/279/4
f 110/277/12 112/280/12 113/283/12
f 113/283/12 112/280/12 87/234/12
f 113/283/12 87/234/12 86/232/12
f 86/232/12 110/277/12 113/283/12
f 39/99/14 87/235/14 114/284/14
f 114/284/14 87/235/14 112/281/14
f 114/284/14 112/281/14 40/101/14
f 40/101/14 39/99/14 114/284/14
f 44/109/15 47/119/15 116/288/15
f 116/288/15 47/119/15 76/201/15
f 116/288/15 76/201/15 115/285/15
f 115/285/15 44/109/15 116/288/15
f 115/286/3 76/202/3 118/292/3
f 118/292/3 76/202/3 75/198/3
f 118/292/3 75/198/3 117/289/3
f 117/289/3 115/286/3 118/292/3
f 117/290/4 75/199/4 120/296/4
f 120/296/4 75/199/4 74/195/4
f 120/296/4 74/195/4 119/293/4
f 119/293/4 117/290/4 120/296/4
f 119/294/3 74/196/3 122/300/3
f 122/300/3 74/196/3 73/192/3
f 122/300/3 73/192/3 121/297/3
f 121/297/3 119/294/3 122/300/3
f 121/298/4 73/193/4 124/304/4
f 124/304/4 73/193/4 72/189/4
f 124/304/4 72/189/4 123/301/4
f 123/301/4 121/298/4 124/304/4
f 71/186/3 125/305/3 126/308/3
f 126/308/3 125/305/3 123/302/3
f 126/308/3 123/302/3 72/190/3
f 72/190/3 71/186/3 126/308/3
f 125/306/4 71/187/4 128/312/4
f 128/312/4 71/187/4 70/183/4
f 128/312/4 70/183/4 127/309/4
f 127/309/4 125/306/4 128/312/4
f 69/180/12 129/313/12 130/316/12
f 130/316/12 129/313/12 127/310/12
f 130/316/12 127/310/12 70/184/12
f 70/184/12 69/180/12 130/316/12
f 129/314/4 69/181/4 132/320/4
f 132/320/4 69/181/4 68/177/4
f 132/320/4 68/177/4 131/317/4
f 131/317/4 129/314/4 132/320/4
f 131/318/16 68/178/16 134/324/16
f 134/324/16 68/178/16 67/174/16
f 134/324/16 67/174/16 133/321/16
f 133/321/16 131/318/16 134/324/16
f 133/322/17 67/175/17 136/328/17
f 136/328/17 67/175/17 66/171/17
f 136/328/17 66/171/17 135/325/17
f 135/325/17 133/322/17 136/328/17
f 135/326/4 66/172/4 138/332/4
f 138/332/4 66/172/4 65/168/4
f 138/332/4 65/168/4 137/329/4
f 137/329/4 135/326/4 138/332/4
f 137/330/12 65/169/12 140/336/12
f 140/336/12 65/169/12 64/165/12
f 140/336/12 64/165/12 139/333/12
f 139/333/12 137/330/12 140/336/12
f 139/334/6 64/166/6 142/340/6
f 142/340/6 64/166/6 63/162/6
f 142/340/6 63/162/6 141/337/6
f 141/337/6 139/334/6 142/340/6
f 141/338/18 63/163/18 144/344/18
f 144/344/18 63/163/18 62/159/18
f 144/344/18 62/159/18 143/341/18
f 143/341/18 141/338/18 144/344/18
f 143/342/19 62/160/19 146/348/19
f 146/348/19 62/160/19 61/156/19
f 146/348/19 61/156/19 145/345/19
f 145/345/19 143/342/19 146/348/19
f 145/346/6 61/157/6 148/352/6
f 148/352/6 61/157/6 60/153/6
f 148/352/6 60/153/6 147/349/6
f 147/349/6 145/346/6 148/352/6
f 147/350/12 60/154/12 150/356/12
f 150/356/12 60/154/12 59/150/12
f 150/356/12 59/150/12 149/353/12
f 149/353/12 147/350/12 150/356/12
f 149/354/6 59/151/6 152/360/6
f 152/360/6 59/151/6 58/147/6
f 152/360/6 58/147/6 151/357/6
f 151/357/6 149/354/6 152/360/6
f 51/129/3 50/125/3 153/361/3
f 153/361/3 50/125/3 151/358/3
f 153/361/3 151/358/3 58/148/3
f 58/148/3 51/129/3 153/361/3
f 49/122/3 52/132/3 155/365/3
f 155/365/3 52/132/3 57/144/3
f 155/365/3 57/144/3 154/362/3
f 154/362/3 49/122/3 155/365/3
f 56/141/6 156/366/6 157/369/6
f 157/369/6 156/366/6 154/363/6
f 157/369/6 154/363/6 57/145/6
f 57/145/6 56/141/6 157/369/6
f 156/367/3 56/142/3 159/373/3
f 159/373/3 56/142/3 55/138/3
f 159/373/3 55/138/3 158/370/3
f 158/370/3 156/367/3 159/373/3
f 158/371/20 55/139/20 161/377/20
f 161/377/20 55/139/20 54/135/20
f 161/377/20 54/135/20 160/374/20
f 160/374/20 158/371/20 161/377/20
f 160/375/21 54/136/21 162/378/21
f 162/378/21 54/136/21 46/116/21
f 162/378/21 46/116/21 45/112/21
f 45/112/21 160/375/21 162/378/21
f 158/372/22 160/376/22 40/102/22
f 40/102/22 160/376/22 45/113/22
f 40/102/22 45/113/22 41/105/22
f 41/105/22 45/113/22 36/92/22
f 36/92/22 45/113/22 44/110/22
f 36/92/22 44/110/22 115/287/22
f 117/291/22 30/76/22 115/287/22
f 115/287/22 30/76/22 33/83/22
f 115/287/22 33/83/22 36/92/22
f 117/291/22 119/295/22 30/76/22
f 30/76/22 119/295/22 31/79/22
f 31/79/22 119/295/22 89/239/22
f 89/239/22 119/295/22 121/299/22
f 89/239/22 121/299/22 123/303/22
f 125/307/22 93/247/22 123/303/22
f 123/303/22 93/247/22 91/243/22
f 123/303/22 91/243/22 89/239/22
f 125/307/22 127/311/22 93/247/22
f 93/247/22 127/311/22 95/251/22
f 95/251/22 127/311/22 129/315/22
f 95/251/22 129/315/22 97/255/22
f 97/255/22 129/315/22 3/9/22
f 3/9/22 129/315/22 131/319/22
f 3/9/22 131/319/22 133/323/22
f 3/9/22 133/323/22 4/12/22
f 4/12/22 133/323/22 135/327/22
f 4/12/22 135/327/22 6/16/22
f 6/16/22 135/327/22 11/29/22
f 11/29/22 135/327/22 137/331/22
f 11/29/22 137/331/22 139/335/22
f 11/29/22 139/335/22 12/32/22
f 12/32/22 139/335/22 141/339/22
f 12/32/22 141/339/22 14/36/22
f 14/36/22 141/339/22 18/46/22
f 18/46/22 141/339/22 143/343/22
f 18/46/22 143/343/22 19/49/22
f 19/49/22 143/343/22 145/347/22
f 19/49/22 145/347/22 147/351/22
f 149/355/22 24/60/22 147/351/22
f 147/351/22 24/60/22 101/261/22
f 147/351/22 101/261/22 19/49/22
f 149/355/22 151/359/22 24/60/22
f 24/60/22 151/359/22 25/63/22
f 25/63/22 151/359/22 50/126/22
f 25/63/22 50/126/22 104/266/22
f 104/266/22 50/126/22 106/270/22
f 106/270/22 50/126/22 49/123/22
f 106/270/22 49/123/22 154/364/22
f 156/368/22 110/278/22 154/364/22
f 154/364/22 110/278/22 108/274/22
f 154/364/22 108/274/22 106/270/22
f 156/368/22 158/372/22 110/278/22
f 110/278/22 158/372/22 112/282/22
f 112/282/22 158/372/22 40/102/22
