# Blender 3.3.0
# www.blender.org
mtllib random.mtl
o Cube
v 1.157553 0.750000 -0.750000
v 1.000000 -1.000000 -1.000000
v 1.157553 -0.750000 0.750000
v -0.666667 0.666667 -0.666667
v -1.000000 -1.000000 -1.000000
v -0.666667 0.666667 0.666667
v -0.666667 -0.666667 0.666667
v 0.000000 0.000000 -1.000000
v -0.195090 0.000000 -0.980785
v -0.382683 0.000000 -0.923880
v -0.555570 0.000000 -0.831470
v -0.707107 0.000000 -0.707107
v -0.831470 0.000000 -0.555570
v -0.923880 0.000000 -0.382683
v -0.980785 0.000000 -0.195090
v -1.000000 0.000000 0.000000
v -0.980785 0.000000 0.195090
v -0.923880 0.000000 0.382683
v -0.831470 0.000000 0.555570
v -0.707107 0.000000 0.707107
v -0.555570 0.000000 0.831470
v -0.382683 0.000000 0.923880
v -0.193216 0.000000 0.971362
v 0.000000 0.000000 0.990393
v 0.193216 0.000000 0.971362
v 0.382683 0.000000 0.923880
v 0.555570 0.000000 0.831470
v 0.707107 0.000000 0.707107
v 0.831470 0.000000 0.555570
v 0.923880 0.000000 0.382683
v 0.980785 0.000000 0.195090
v 1.000000 0.000000 0.000000
v 0.980785 0.000000 -0.195090
v 0.923880 0.000000 -0.382683
v 0.831470 0.000000 -0.555570
v 0.707107 0.000000 -0.707107
v 0.555570 0.000000 -0.831470
v 0.382683 0.000000 -0.923880
v 0.195090 0.000000 -0.980785
v 2.631683 0.750000 -0.750000
v 2.631683 -0.750000 -0.750000
v -0.729138 0.666667 2.034195
v 2.631683 -0.750000 0.750000
v 1.095082 -0.750000 2.117528
v 1.095082 0.750000 0.617528
v -0.729138 0.666667 0.700862
v 1.095082 0.750000 2.117528
v -0.729138 -0.666667 2.034195
v -0.062471 0.000000 0.367528
v -0.893941 0.000000 1.923098
v -0.769578 0.000000 2.074635
v -0.618041 0.000000 2.198998
v -0.445154 0.000000 2.291408
v -0.255687 0.000000 2.338891
v -0.062471 0.000000 2.357921
v 0.130745 0.000000 2.338891
v 0.320213 0.000000 2.291408
v 0.493099 0.000000 2.198998
v 0.644636 0.000000 2.074635
v 2.569212 -0.750000 2.117528
v -0.379193 0.000000 1.951873
v 1.057945 -0.802662 1.514330
v 2.986919 4.535345 -0.172064
v 2.986919 4.535345 1.327936
v 2.986919 3.035345 1.327936
v 1.162700 4.452012 -0.088731
v 1.162700 4.452012 1.244603
v 1.829366 3.785345 -0.422064
v 4.461050 4.535345 -0.172064
v 4.461050 3.035345 -0.172064
v 1.100229 4.452012 2.612131
v 4.461050 3.035345 1.327936
v 2.924448 3.035345 2.695464
v 2.924448 4.535345 1.195464
v 1.100229 4.452012 1.278798
v 2.924448 4.535345 2.695464
v 1.059789 3.785345 2.652571
v 1.211325 3.785345 2.776934
v 1.384212 3.785345 2.869344
v 1.573679 3.785345 2.916827
v 1.766895 3.785345 2.935857
v 1.960111 3.785345 2.916827
v 2.149579 3.785345 2.869344
v 2.322466 3.785345 2.776934
v 2.474002 3.785345 2.652571
v 4.398579 3.035345 2.695464
vn -0.0000 1.0000 -0.0000
vn -0.9733 0.1622 0.1622
vn -0.0000 -0.9806 0.1961
vn -0.0000 0.1961 -0.9806
vn 0.1309 0.1286 -0.9830
vn -0.0000 -1.0000 -0.0000
vn -0.2350 0.2567 -0.9375
vn -0.0455 -0.9990 -0.0021
vn -0.0456 -0.0000 0.9990
vn 0.0975 0.1040 -0.9898
vn -0.9004 0.4351 -0.0000
vn -0.9990 -0.0000 -0.0456
vn -0.3012 -0.0000 0.9535
vn 0.3012 -0.0000 -0.9535
vn -0.0961 0.1955 -0.9760
vn 0.0457 -0.9990 0.0021
vn 0.5840 0.5740 0.5740
vn 0.9990 -0.0000 0.0456
vn -0.0455 0.9990 -0.0021
vn -0.8971 0.4398 -0.0410
vn 0.2430 0.0306 -0.9695
vn -0.4432 0.3408 -0.8291
vn -0.0529 0.1757 -0.9830
vn 0.9004 -0.4351 -0.0000
vn -0.5839 0.3908 -0.7115
vn 0.8971 -0.4398 0.0410
vn -0.0392 -0.1323 0.9904
vn -0.0000 -0.1509 0.9885
vn 0.6234 -0.1853 -0.7596
vn 0.4694 -0.0928 -0.8781
vn -0.0000 0.1509 -0.9885
vn -1.0000 -0.0000 -0.0000
vn -0.0518 -0.9880 0.1458
vn -0.0518 0.1458 -0.9880
vn -0.0000 -0.0000 -1.0000
vn 0.1309 -0.9830 0.1286
vn -0.0000 0.7071 0.7071
vn -0.0456 0.9990 -0.0000
vn -0.0000 -0.0000 1.0000
vn 1.0000 -0.0000 -0.0000
vn -0.0259 0.9993 -0.0254
vt 0.000000 0.000000
vt 0.625000 0.500000
vt 0.375000 0.500000
vt 0.375000 0.750000
vt 0.625000 0.250000
vt 0.125000 0.500000
vt 0.375000 0.250000
vt 0.625000 0.000000
vt 0.125000 0.750000
vt 0.375000 0.000000
vt 0.000000 0.000000
vt 0.000000 0.000000
vt 0.000000 0.000000
vt 0.000000 0.000000
vt 0.000000 0.000000
vt 0.000000 0.000000
vt 0.000000 0.000000
vt 0.000000 0.000000
vt 0.000000 0.000000
vt 0.000000 0.000000
vt 0.625000 0.500000
vt 0.375000 0.500000
vt 0.625000 1.000000
vt 0.000000 0.000000
vt 0.625000 0.000000
vt 0.375000 0.750000
vt 0.000000 0.000000
vt 0.000000 0.000000
vt 0.375000 0.750000
vt 0.000000 0.000000
vt 0.000000 0.000000
vt 0.625000 0.750000
vt 0.125000 0.750000
vt 0.375000 1.000000
vt 0.375000 0.000000
vt 0.000000 0.000000
vt 0.000000 0.000000
vt 0.000000 0.000000
vt 0.000000 0.000000
vt 0.000000 0.000000
vt 0.000000 0.000000
vt 0.000000 0.000000
vt 0.000000 0.000000
vt 0.000000 0.000000
vt 0.000000 0.000000
vt 0.000000 0.000000
vt 0.000000 0.000000
vt 0.625000 0.500000
vt 0.625000 0.750000
vt 0.375000 0.750000
vt 0.625000 0.250000
vt 0.875000 0.500000
vt 0.625000 0.000000
vt 0.875000 0.750000
vt 0.625000 0.500000
vt 0.375000 0.500000
vt 0.625000 0.000000
vt 0.000000 0.000000
vt 0.875000 0.750000
vt 0.625000 1.000000
vt 0.375000 0.750000
vt 0.000000 0.000000
vt 0.375000 0.750000
vt 0.000000 0.000000
vt 0.625000 0.500000
vt 0.000000 0.000000
vt 0.625000 0.250000
vt 0.000000 0.000000
vt 0.625000 0.750000
vt 0.000000 0.000000
vt 0.000000 0.000000
vt 0.000000 0.000000
vt 0.000000 0.000000
vt 0.000000 0.000000
vt 0.000000 0.000000
vt 0.000000 0.000000
vt 0.000000 0.000000
vt 0.000000 0.000000
vt 0.375000 0.750000
vt 0.000000 0.000000
s 0
usemtl Material
f 21/13/1 51/37/1 52/38/1
f 25/17/1 57/43/1 26/18/1
f 7/10/2 4/5/2 5/7/2
f 2/3/3 7/9/3 5/6/3
f 27/19/1 59/45/1 28/20/1
f 4/5/4 2/3/4 5/7/4
f 20/12/1 50/36/1 51/37/1
f 1/2/5 41/22/5 2/3/5
f 3/4/6 41/22/6 43/26/6
f 57/43/7 82/75/7 83/76/7
f 7/9/8 44/29/8 48/33/8
f 26/18/1 58/44/1 27/19/1
f 47/32/9 48/34/9 44/29/9
f 55/41/10 80/73/10 81/74/10
f 42/24/11 75/68/11 46/31/11
f 22/14/1 52/38/1 53/39/1
f 7/10/12 42/25/12 6/8/12
f 47/32/13 73/63/13 76/69/13
f 23/15/1 53/39/1 54/40/1
f 40/21/14 70/56/14 41/22/14
f 24/16/1 54/40/1 55/41/1
f 24/16/1 56/42/1 25/17/1
f 56/42/15 81/74/15 82/75/15
f 66/51/16 74/65/16 75/67/16
f 67/53/1 75/67/1 71/57/1
f 64/49/17 72/61/17 69/55/17
f 65/50/1 86/79/1 72/61/1
f 64/49/18 73/63/18 65/50/18
f 67/54/19 76/69/19 64/49/19
f 45/30/20 63/47/20 1/1/20
f 54/40/21 79/72/21 80/73/21
f 58/44/22 83/76/22 84/77/22
f 45/30/23 75/68/23 74/66/23
f 43/26/24 70/56/24 72/61/24
f 59/45/25 84/77/25 85/78/25
f 60/46/26 72/62/26 86/80/26
f 47/32/27 71/60/27 42/23/27
f 60/46/28 73/64/28 44/28/28
f 52/38/29 77/70/29 78/71/29
f 53/39/30 78/71/30 79/72/30
f 40/21/31 63/48/31 69/55/31
f 21/13/1 20/12/1 51/37/1
f 25/17/1 56/42/1 57/43/1
f 7/10/32 6/8/32 4/5/32
f 2/3/33 3/4/33 7/9/33
f 27/19/1 58/44/1 59/45/1
f 4/5/34 1/2/34 2/3/34
f 20/12/1 19/11/1 50/36/1
f 1/2/35 40/21/35 41/22/35
f 3/4/36 2/3/36 41/22/36
f 57/43/7 56/42/7 82/75/7
f 7/9/8 3/4/8 44/29/8
f 26/18/1 57/43/1 58/44/1
f 47/32/9 42/23/9 48/34/9
f 55/41/10 54/40/10 80/73/10
f 42/24/11 71/58/11 75/68/11
f 22/14/1 21/13/1 52/38/1
f 7/10/12 48/35/12 42/25/12
f 47/32/13 44/29/13 73/63/13
f 23/15/1 22/14/1 53/39/1
f 40/21/14 69/55/14 70/56/14
f 24/16/1 23/15/1 54/40/1
f 24/16/1 55/41/1 56/42/1
f 56/42/15 55/41/15 81/74/15
f 66/51/16 63/48/16 74/65/16
f 67/53/1 66/51/1 75/67/1
f 69/55/37 63/48/37 66/52/37
f 66/52/38 67/54/38 64/49/38
f 64/49/39 65/50/39 72/61/39
f 72/61/40 70/56/40 69/55/40
f 69/55/41 66/52/41 64/49/41
f 65/50/1 73/63/1 86/79/1
f 64/49/18 76/69/18 73/63/18
f 67/54/19 71/59/19 76/69/19
f 45/30/20 74/66/20 63/47/20
f 54/40/21 53/39/21 79/72/21
f 58/44/22 57/43/22 83/76/22
f 45/30/23 46/31/23 75/68/23
f 43/26/24 41/22/24 70/56/24
f 59/45/25 58/44/25 84/77/25
f 60/46/26 43/27/26 72/62/26
f 47/32/27 76/69/27 71/60/27
f 60/46/28 86/80/28 73/64/28
f 52/38/29 51/37/29 77/70/29
f 53/39/30 52/38/30 78/71/30
f 40/21/31 1/2/31 63/48/31
l 10 9
l 12 11
l 14 13
l 16 15
l 18 17
l 30 29
l 32 31
l 34 33
l 36 35
l 38 37
l 53 61
l 61 62
l 9 8
l 11 10
l 13 12
l 15 14
l 17 16
l 19 18
l 29 28
l 31 30
l 33 32
l 35 34
l 37 36
l 39 38
l 8 49
l 8 68
l 8 39
